<svg width="160" height="160" viewBox="0 0 160 160" fill="none" xmlns="http://www.w3.org/2000/svg">
  <path d="M50 58C50 39.222 63.431 26 80 26C96.569 26 110 39.222 110 58V123.5C110 127.122 105.787 129.115 102.984 126.819L94.182 119.611C92.595 118.311 90.301 118.311 88.714 119.611L82.73 124.511C81.141 125.812 78.847 125.81 77.26 124.506L71.305 119.614C69.716 118.309 67.417 118.31 65.83 119.617L57.016 126.876C54.215 129.183 50 127.191 50 123.563V58Z" fill="white"/>
  <path d="M50 58C50 39.222 63.431 26 80 26C96.569 26 110 39.222 110 58V123.5C110 127.122 105.787 129.115 102.984 126.819L94.182 119.611C92.595 118.311 90.301 118.311 88.714 119.611L82.73 124.511C81.141 125.812 78.847 125.81 77.26 124.506L71.305 119.614C69.716 118.309 67.417 118.31 65.83 119.617L57.016 126.876C54.215 129.183 50 127.191 50 123.563V58Z" stroke="#111827" stroke-width="6" stroke-linejoin="round"/>
  <path d="M62 38L80 24L118 34L100 48L62 38Z" fill="#BB2744" stroke="#111827" stroke-width="5" stroke-linejoin="round"/>
  <path d="M100 48V64" stroke="#111827" stroke-width="5" stroke-linecap="round"/>
  <circle cx="69" cy="72" r="6" fill="#111827"/>
  <circle cx="91" cy="72" r="6" fill="#111827"/>
  <path d="M71 92C76.5 97 83.5 97 89 92" stroke="#111827" stroke-width="5" stroke-linecap="round"/>
</svg>
