<svg width="520" height="180" viewBox="0 0 520 180" fill="none" xmlns="http://www.w3.org/2000/svg">
  <rect width="520" height="180" rx="36" fill="#0B0F19"/>
  <path d="M58 78C58 50.4 77.9 31 102 31C126.1 31 146 50.4 146 78V143.5C146 148.9 139.7 151.8 135.6 148.3L125.8 139.9C123.4 137.8 119.8 137.8 117.4 139.9L110.2 146.1C107.8 148.2 104.2 148.2 101.8 146.1L94.6 139.9C92.2 137.8 88.6 137.8 86.2 139.9L76.4 148.3C72.3 151.8 58 148.9 58 143.5V78Z" fill="#F9FAFB" stroke="#020617" stroke-width="7" stroke-linejoin="round"/>
  <path d="M76 50L102 30L153 43L127 63L76 50Z" fill="#BB2744" stroke="#020617" stroke-width="6" stroke-linejoin="round"/>
  <circle cx="91" cy="94" r="7" fill="#020617"/>
  <circle cx="113" cy="94" r="7" fill="#020617"/>
  <path d="M92 120C98 126 106 126 112 120" stroke="#020617" stroke-width="6" stroke-linecap="round"/>
  <path d="M183 116.5C171.7 116.5 162.8 113.1 156.4 106.4C150 99.6 146.8 90.7 146.8 79.5C146.8 68.1 150.1 59 156.8 52.2C163.5 45.4 172.6 42 184.2 42C192.2 42 199 43.6 204.7 46.9V64.8C199 60.9 192.8 58.9 186.1 58.9C179.8 58.9 174.8 60.7 171.2 64.3C167.5 67.9 165.7 72.9 165.7 79.2C165.7 85.4 167.4 90.3 170.7 93.9C174.1 97.4 178.8 99.1 184.8 99.1C188.1 99.1 191 98.7 193.5 97.9V86.5H181.4V71.6H211V109.2C203.8 114.1 194.5 116.5 183 116.5Z" fill="#F9FAFB"/>
  <path d="M250.2 116.5C241.6 116.5 234.8 114.1 229.9 109.4C225 104.6 222.6 98.1 222.6 89.9V43H240.7V89.3C240.7 95.8 243.9 99.1 250.5 99.1C256.8 99.1 260 95.8 260 89.3V43H278.1V89.9C278.1 98.2 275.6 104.7 270.6 109.4C265.6 114.1 258.8 116.5 250.2 116.5Z" fill="#F9FAFB"/>
  <path d="M324.6 116.5C314.2 116.5 305.9 113.1 299.6 106.3C293.4 99.4 290.3 90.5 290.3 79.4C290.3 68.4 293.4 59.4 299.6 52.6C305.9 45.6 314.2 42 324.6 42C335 42 343.3 45.5 349.5 52.5C355.7 59.3 358.8 68.3 358.8 79.4C358.8 90.5 355.7 99.5 349.5 106.3C343.3 113.1 335 116.5 324.6 116.5Z" fill="#F9FAFB"/>
  <path d="M396 116.5C386.9 116.5 379.5 114.7 373.8 111.1V93.3C380.4 98.1 387.3 100.4 394.7 100.4C398.1 100.4 400.7 99.9 402.5 98.8C404.3 97.7 405.2 96.1 405.2 94.2C405.2 91.9 404.2 90.1 402.2 88.8C400.2 87.5 396.6 85.9 391.4 84.1C385.4 82 380.9 79.4 378 76.4C375.1 73.3 373.6 69.1 373.6 63.8C373.6 57.4 376 52.2 380.8 48.3C385.7 44.2 392.4 42.2 400.9 42.2C408.1 42.2 414.5 43.6 420 46.3V63.5C414.2 59.8 408.3 58 402.3 58C395.8 58 392.5 59.8 392.5 63.4C392.5 65.4 393.4 67 395.1 68.2C396.8 69.3 400.1 70.7 405 72.4C411.5 74.5 416.3 77.2 419.5 80.5C422.8 83.8 424.4 88.2 424.4 93.8C424.4 100.7 421.9 106.2 417 110.3C412.1 114.4 405.1 116.5 396 116.5Z" fill="#F9FAFB"/>
  <path d="M472.6 115.5H454.5V59.8H434.5V43H492.7V59.8H472.6V115.5Z" fill="#F9FAFB"/>
</svg>
