<svg width="360" height="120" viewBox="0 0 360 120" fill="none" xmlns="http://www.w3.org/2000/svg">
  <path d="M28 45C28 28.983 39.521 18 54 18C68.479 18 80 28.983 80 45V91.83C80 95.253 76.013 97.129 73.377 94.945L67.031 89.688C65.444 88.374 63.139 88.371 61.549 89.68L57.341 93.143C55.752 94.45 53.452 94.45 51.864 93.142L47.671 89.689C46.083 88.381 43.783 88.38 42.194 89.686L35.629 95.082C32.99 97.251 28 95.372 28 91.959V45Z" fill="white" stroke="#111827" stroke-width="5" stroke-linejoin="round"/>
  <path d="M38 29L54 17L88 26L72 38L38 29Z" fill="#BB2744" stroke="#111827" stroke-width="4" stroke-linejoin="round"/>
  <circle cx="45" cy="56" r="5" fill="#111827"/>
  <circle cx="63" cy="56" r="5" fill="#111827"/>
  <path d="M46 72C51 76 57 76 62 72" stroke="#111827" stroke-width="4" stroke-linecap="round"/>
  <path d="M115.6 77.5C107.28 77.5 100.76 75.04 96.04 70.12C91.32 65.2 88.96 58.66 88.96 50.5C88.96 42.18 91.4 35.54 96.28 30.58C101.16 25.62 107.84 23.14 116.32 23.14C122.16 23.14 127.16 24.34 131.32 26.74V39.82C127.16 36.94 122.62 35.5 117.7 35.5C113.06 35.5 109.4 36.82 106.72 39.46C104.04 42.1 102.7 45.72 102.7 50.32C102.7 54.88 103.92 58.46 106.36 61.06C108.84 63.62 112.28 64.9 116.68 64.9C119.08 64.9 121.18 64.6 122.98 64V55.66H114.1V44.74H135.76V72.28C130.52 75.76 123.8 77.5 115.6 77.5Z" fill="white"/>
  <path d="M170.318 77.5C164.038 77.5 159.098 75.78 155.498 72.34C151.938 68.86 150.158 64.12 150.158 58.12V23.86H163.418V57.7C163.418 62.5 165.778 64.9 170.498 64.9C175.138 64.9 177.458 62.5 177.458 57.7V23.86H190.718V58.12C190.718 64.16 188.878 68.9 185.198 72.34C181.558 75.78 176.598 77.5 170.318 77.5Z" fill="white"/>
  <path d="M225.878 77.5C218.278 77.5 212.178 75.02 207.578 70.06C203.018 65.06 200.738 58.52 200.738 50.44C200.738 42.36 203.018 35.82 207.578 30.82C212.178 25.7 218.278 23.14 225.878 23.14C233.518 23.14 239.598 25.68 244.118 30.76C248.678 35.76 250.958 42.32 250.958 50.44C250.958 58.56 248.678 65.12 244.118 70.12C239.558 75.04 233.478 77.5 225.878 77.5ZM225.878 64.9C229.358 64.9 232.098 63.62 234.098 61.06C236.098 58.46 237.098 54.92 237.098 50.44C237.098 45.92 236.098 42.36 234.098 39.76C232.138 37.12 229.398 35.8 225.878 35.8C222.358 35.8 219.598 37.12 217.598 39.76C215.638 42.36 214.658 45.92 214.658 50.44C214.658 54.92 215.638 58.46 217.598 61.06C219.598 63.62 222.358 64.9 225.878 64.9Z" fill="white"/>
  <path d="M278.831 77.5C272.191 77.5 266.791 76.18 262.631 73.54V60.52C267.431 64 272.511 65.74 277.871 65.74C280.351 65.74 282.251 65.34 283.571 64.54C284.891 63.7 285.551 62.56 285.551 61.12C285.551 59.44 284.811 58.12 283.331 57.16C281.851 56.2 279.211 55.06 275.411 53.74C271.011 52.22 267.731 50.34 265.571 48.1C263.451 45.86 262.391 42.8 262.391 38.92C262.391 34.2 264.151 30.42 267.671 27.58C271.231 24.62 276.111 23.14 282.311 23.14C287.591 23.14 292.251 24.14 296.291 26.14V38.68C292.051 36.04 287.731 34.72 283.331 34.72C278.571 34.72 276.191 36.04 276.191 38.68C276.191 40.16 276.811 41.32 278.051 42.16C279.331 43 281.751 44.02 285.311 45.22C290.031 46.78 293.571 48.76 295.931 51.16C298.331 53.56 299.531 56.8 299.531 60.88C299.531 65.92 297.731 69.94 294.131 72.94C290.531 75.98 285.431 77.5 278.831 77.5Z" fill="white"/>
  <path d="M332.736 76.78H319.476V36.04H304.836V23.86H347.376V36.04H332.736V76.78Z" fill="white"/>
</svg>
